<svg width="85" height="35" viewBox="0 0 85 35" fill="none" xmlns="http://www.w3.org/2000/svg">
<rect x="1.5" y="1.5" width="82" height="32" stroke="white" stroke-width="3"/>
<path d="M20.1054 26.22C18.4254 26.22 17.2321 25.7533 16.5254 24.82C15.8321 23.8733 15.4854 22.54 15.4854 20.82V15.04C15.4854 13.2667 15.8321 11.92 16.5254 11C17.2187 10.08 18.4121 9.62 20.1054 9.62C21.6921 9.62 22.8187 10.02 23.4854 10.82C24.1521 11.62 24.4854 12.7733 24.4854 14.28V15.64H21.6454V14.24C21.6454 13.6667 21.6187 13.22 21.5654 12.9C21.5121 12.5667 21.3721 12.3 21.1454 12.1C20.9321 11.8867 20.5921 11.78 20.1254 11.78C19.6454 11.78 19.2854 11.8933 19.0454 12.12C18.8054 12.3333 18.6454 12.6267 18.5654 13C18.4987 13.36 18.4654 13.8333 18.4654 14.42V21.44C18.4654 22.36 18.5854 23.0267 18.8254 23.44C19.0654 23.84 19.4987 24.04 20.1254 24.04C20.5787 24.04 20.9121 23.9333 21.1254 23.72C21.3521 23.5067 21.4921 23.2267 21.5454 22.88C21.6121 22.52 21.6454 22.0467 21.6454 21.46V20H24.4854V21.3C24.4854 22.86 24.1587 24.0733 23.5054 24.94C22.8521 25.7933 21.7187 26.22 20.1054 26.22ZM28.5462 9.8H32.4462C34.1528 9.8 35.4262 10.1267 36.2662 10.78C37.1062 11.42 37.5262 12.5267 37.5262 14.1C37.5262 15.1267 37.3728 15.9667 37.0662 16.62C36.7728 17.26 36.2595 17.7267 35.5262 18.02L37.7862 26H34.8262L32.8862 18.58H31.4862V26H28.5462V9.8ZM32.4262 16.74C33.2662 16.74 33.8595 16.5467 34.2062 16.16C34.5662 15.7733 34.7462 15.14 34.7462 14.26C34.7462 13.4067 34.5862 12.7867 34.2662 12.4C33.9595 12.0133 33.3995 11.82 32.5862 11.82H31.4862V16.74H32.4262ZM41.8371 9.8H44.7571V26H41.8371V9.8ZM53.3449 26.22C51.8783 26.22 50.7783 25.8067 50.0449 24.98C49.3249 24.1533 48.9316 22.92 48.8649 21.28L51.4049 20.78C51.4449 21.8067 51.6049 22.5933 51.8849 23.14C52.1783 23.6733 52.6316 23.94 53.2449 23.94C53.6983 23.94 54.0316 23.8067 54.2449 23.54C54.4716 23.26 54.5849 22.8867 54.5849 22.42C54.5849 21.78 54.4383 21.24 54.1449 20.8C53.8649 20.3467 53.4183 19.8533 52.8049 19.32L50.7649 17.54C50.1383 17.0067 49.6649 16.4333 49.3449 15.82C49.0383 15.2067 48.8849 14.4733 48.8849 13.62C48.8849 12.3533 49.2516 11.3733 49.9849 10.68C50.7316 9.97333 51.7583 9.62 53.0649 9.62C54.4649 9.62 55.4649 10.02 56.0649 10.82C56.6783 11.6067 57.0316 12.6733 57.1249 14.02L54.5849 14.46C54.5449 13.58 54.4183 12.92 54.2049 12.48C54.0049 12.0267 53.6049 11.8 53.0049 11.8C52.5783 11.8 52.2449 11.9467 52.0049 12.24C51.7649 12.52 51.6449 12.88 51.6449 13.32C51.6449 13.84 51.7449 14.28 51.9449 14.64C52.1583 14.9867 52.4983 15.36 52.9649 15.76L54.9849 17.54C55.7449 18.1933 56.3383 18.8933 56.7649 19.64C57.1916 20.3867 57.4049 21.2533 57.4049 22.24C57.4049 23.0133 57.2316 23.7 56.8849 24.3C56.5516 24.9 56.0783 25.3733 55.4649 25.72C54.8516 26.0533 54.1449 26.22 53.3449 26.22ZM61.1477 9.8H65.9077C68.6677 9.8 70.0477 11.3333 70.0477 14.4C70.0477 17.3333 68.6011 18.8 65.7077 18.8H64.0877V26H61.1477V9.8ZM65.2277 16.72C66.0277 16.72 66.5677 16.5533 66.8477 16.22C67.1277 15.8733 67.2677 15.26 67.2677 14.38C67.2677 13.74 67.2211 13.2533 67.1277 12.92C67.0344 12.5733 66.8411 12.3133 66.5477 12.14C66.2677 11.9667 65.8277 11.88 65.2277 11.88H64.0877V16.72H65.2277Z" fill="white"/>
</svg>
